# Created by Open3D 
# object name: beautiful_upper_face
# number of vertices: 330
# number of triangles: 618
v -1.99831 2.74384 3.74403
v -1.99831 2.49655 3.68915
v -1.85643 2.58525 3.7579
v -4.25308 2.7723 3.3153
v -4.44586 2.66399 3.17342
v -4.25308 2.57765 3.2797
v 1.99831 2.49655 3.68915
v 1.99831 2.74384 3.74403
v 1.85643 2.58525 3.7579
v 4.44586 2.66399 3.17342
v 4.25308 2.7723 3.3153
v 4.25308 2.57765 3.2797
v 7.74309 2.365 -2.00517
v 7.55581 4.10681 -0.991917
v 7.21453 2.26301 0.07315
v -7.74309 2.365 -2.00517
v -7.21453 2.26301 0.07315
v -7.55581 4.10681 -0.991917
v 6.84726 3.66292 0.724695
v -6.84726 3.66292 0.724695
v 0.711452 -3.32936 5.87704
v 0 -3.4064 5.97951
v -0.711452 -3.32936 5.87704
v 2.43018 1.13149 4.03903
v 2.52757 1.61731 3.86544
v 1.82073 1.46795 4.22412
v -2.43018 1.13149 4.03903
v -1.82073 1.46795 4.22412
v -2.52757 1.61731 3.86544
v 1.97089 1.85851 3.96178
v -1.97089 1.85851 3.96178
v 1.43161 -3.50095 5.49619
v -1.43161 -3.50095 5.49619
v 1.39114 1.85105 4.449
v 1.30326 1.41645 4.83109
v -1.39114 1.85105 4.449
v -1.30326 1.41645 4.83109
v 1.7187 0.974609 4.55836
v -1.7187 0.974609 4.55836
v 1.57954 2.09794 4.085
v -1.57954 2.09794 4.085
v 3.06393 6.56614 4.52998
v 4.53864 6.31991 3.68342
v 3.52396 8.00598 3.72916
v -3.06393 6.56614 4.52998
v -3.52396 8.00598 3.72916
v -4.53864 6.31991 3.68342
v 5.1332 7.4856 2.66044
v -5.1332 7.4856 2.66044
v 2.28846 2.39889 3.6976
v 2.28846 2.8865 3.77503
v -2.28846 2.39889 3.6976
v -2.28846 2.8865 3.77503
v 4.7655 -0.701554 3.53463
v 4.43234 0.722096 3.52261
v 3.32732 0.104863 4.11386
v -4.7655 -0.701554 3.53463
v -3.32732 0.104863 4.11386
v -4.43234 0.722096 3.52261
v 3.30068 0.861641 3.87278
v -3.30068 0.861641 3.87278
v 0 4.88598 5.38526
v 1.39563 5.01196 5.31603
v 0 6.54539 5.02731
v -1.39563 5.01196 5.31603
v 1.6195 6.59922 4.92111
v -1.6195 6.59922 4.92111
v 1.30576 -0.672779 6.41596
v 1.60863 -0.942516 5.81419
v 1.33397 -0.283761 6.09705
v -1.30576 -0.672779 6.41596
v -1.33397 -0.283761 6.09705
v -1.60863 -0.942516 5.81419
v 1.65127 -0.610868 5.58132
v -1.65127 -0.610868 5.58132
v 2.36825 -3.10624 4.8681
v -2.36825 -3.10624 4.8681
v 4.07171 1.47682 3.47694
v -4.07171 1.47682 3.47694
v 3.26982 1.47066 3.73195
v -3.26982 1.47066 3.73195
v 3.74519 3.16529 3.97241
v 3.67007 2.92771 3.72432
v 4.16102 3.05907 3.71955
v -3.74519 3.16529 3.97241
v -4.16102 3.05907 3.71955
v -3.67007 2.92771 3.72432
v 4.01839 2.85736 3.48298
v -4.01839 2.85736 3.48298
v 2.19349 3.10032 4.00058
v 1.78 2.86 3.88156
v -2.19349 3.10032 4.00058
v -1.78 2.86 3.88156
v 5.43619 -4.03048 2.10985
v -5.43619 -4.03048 2.10985
v 1.77622 -2.68395 5.21312
v 2.31163 -1.56624 4.59009
v 1.40563 -1.7142 5.24109
v -1.77622 -2.68395 5.21312
v -1.40563 -1.7142 5.24109
v -2.31163 -1.56624 4.59009
v 1.78579 -0.978284 4.85047
v -1.78579 -0.978284 4.85047
v 5.59976 5.71547 2.72426
v 6.37439 4.78559 1.59169
v 6.27933 6.61543 1.42585
v -5.59976 5.71547 2.72426
v -6.27933 6.61543 1.42585
v -6.37439 4.78559 1.59169
v 7.08796 5.4348 0.09962
v -7.08796 5.4348 0.09962
v 0 -0.46317 7.58658
v 0.496396 -0.475659 7.44036
v 0 0.365669 7.24287
v -0.496396 -0.475659 7.44036
v 0.478306 0.295766 7.10101
v -0.478306 0.295766 7.10101
v 3.77515 2.0394 3.64619
v 3.67007 2.36015 3.63523
v 3.19836 1.98582 3.79695
v -3.77515 2.0394 3.64619
v -3.19836 1.98582 3.79695
v -3.67007 2.36015 3.63523
v 3.17719 2.29427 3.7757
v -3.17719 2.29427 3.7757
v 3.83293 -1.53733 4.13773
v 5.27854 -2.23894 2.86122
v -5.27854 -2.23894 2.86122
v -3.83293 -1.53733 4.13773
v 4.3869 -2.68329 3.64389
v -4.3869 -2.68329 3.64389
v 2.84494 -0.720868 4.43313
v 2.96186 -2.27421 4.44094
v -2.96186 -2.27421 4.44094
v -2.84494 -0.720868 4.43313
v 0.766444 3.18213 4.86145
v 1.03136 2.38266 4.61585
v 1.31417 3.10491 4.2314
v -0.766444 3.18213 4.86145
v -1.31417 3.10491 4.2314
v -1.03136 2.38266 4.61585
v 1.25565 2.46714 4.2038
v -1.25565 2.46714 4.2038
v 3.20823 3.22393 4.11582
v 2.6738 3.20534 4.0922
v 3.17719 2.96414 3.87697
v -3.20823 3.22393 4.11582
v -3.17719 2.96414 3.87697
v -2.6738 3.20534 4.0922
v 2.72403 2.96181 3.87177
v -2.72403 2.96181 3.87177
v 4.53 2.91 3.33968
v -4.53 2.91 3.33968
v 0.463928 0.955357 6.63358
v 0.884838 0.65874 6.23323
v 0.516573 1.58357 6.14836
v -0.463928 0.955357 6.63358
v -0.516573 1.58357 6.14836
v -0.884838 0.65874 6.23323
v 0.901447 1.23699 5.75426
v -0.901447 1.23699 5.75426
v 1.22094 4.14217 5.10604
v 0 4.01904 5.28476
v -1.22094 4.14217 5.10604
v 0 3.27103 5.23601
v 5.73334 1.41174 2.43173
v 5.06201 1.93442 2.77609
v 5.25866 0.945811 2.97431
v -5.73334 1.41174 2.43173
v -5.25866 0.945811 2.97431
v -5.06201 1.93442 2.77609
v 4.70683 1.651 3.10953
v -4.70683 1.651 3.10953
v 1.75539 3.52912 4.3277
v -1.75539 3.52912 4.3277
v 1.23641 -1.58557 5.48049
v 0.597442 -2.01369 5.86646
v -0.597442 -2.01369 5.86646
v -1.23641 -1.58557 5.48049
v 0.662449 -1.81932 5.86376
v -0.662449 -1.81932 5.86376
v 1.61125 0.339326 4.89542
v 2.34234 0.572222 4.2943
v -2.34234 0.572222 4.2943
v -1.61125 0.339326 4.89542
v 2.10366 -0.163946 4.56612
v -2.10366 -0.163946 4.56612
v 0.946874 -1.03525 6.51227
v 1.22224 -1.18244 5.95247
v 1.12612 -0.933602 6.53878
v -0.946874 -1.03525 6.51227
v -1.12612 -0.933602 6.53878
v -1.22224 -1.18244 5.95247
v 1.44311 -1.14277 5.90513
v -1.44311 -1.14277 5.90513
v 2.16429 2.18987 3.85182
v -2.16429 2.18987 3.85182
v 1.85989 2.35576 3.84318
v -1.85989 2.35576 3.84318
v 1.24681 0.230297 5.68104
v -1.24681 0.230297 5.68104
v 1.54237 -0.136843 5.20101
v -1.54237 -0.136843 5.20101
v 1.25554 0.802341 5.30755
v -1.25554 0.802341 5.30755
v 3.38806 3.72198 4.30903
v 4.07577 3.67541 4.07606
v 3.73496 4.50823 4.55045
v -3.38806 3.72198 4.30903
v -3.73496 4.50823 4.55045
v -4.07577 3.67541 4.07606
v 4.5886 4.30204 4.04848
v -4.5886 4.30204 4.04848
v 0.923388 0.073076 6.67194
v -0.923388 0.073076 6.67194
v 0.923043 -0.529042 7.00342
v -0.923043 -0.529042 7.00342
v 1.8914 8.23638 4.275
v -1.8914 8.23638 4.275
v 4.67096 2.66446 3.08407
v 4.98861 3.07465 3.08386
v -4.98861 3.07465 3.08386
v -4.67096 2.66446 3.08407
v 5.17175 2.53575 2.67087
v -5.17175 2.53575 2.67087
v 3.98656 5.10949 4.46631
v -3.98656 5.10949 4.46631
v 4.98589 4.80246 3.75198
v -4.98589 4.80246 3.75198
v 0.416106 -1.46645 6.44766
v 0.460213 -1.33411 6.78745
v 0.319925 -1.60793 6.50868
v -0.416106 -1.46645 6.44766
v -0.319925 -1.60793 6.50868
v -0.460213 -1.33411 6.78745
v 0.387306 -1.40999 6.95771
v -0.387306 -1.40999 6.95771
v 5.25331 3.88158 3.36316
v 5.5877 3.20807 2.68784
v 5.72097 4.25458 2.83085
v -5.25331 3.88158 3.36316
v -5.72097 4.25458 2.83085
v -5.5877 3.20807 2.68784
v 6.13004 3.39926 2.03852
v -6.13004 3.39926 2.03852
v 7.29733 0.763172 -0.048769
v 6.46517 0.937119 1.68987
v -7.29733 0.763172 -0.048769
v -6.46517 0.937119 1.68987
v 6.40757 2.23602 1.56084
v -6.40757 2.23602 1.56084
v 6.33814 -0.529279 1.88118
v -6.33814 -0.529279 1.88118
v 0 -1.12687 7.4756
v 0 -1.5011 7.1122
v 0.427049 -1.09413 7.36053
v -0.427049 -1.09413 7.36053
v 0.242624 -1.46286 7.07149
v -0.242624 -1.46286 7.07149
v 3.49258 -3.19582 4.1302
v -3.49258 -3.19582 4.1302
v 2.72403 2.3158 3.77715
v 2.62864 2.0359 3.84812
v -2.72403 2.3158 3.77715
v -2.62864 2.0359 3.84812
v 0.731493 -2.53668 5.81534
v -0.731493 -2.53668 5.81534
v 0.729766 -1.59371 5.83321
v -0.729766 -1.59371 5.83321
v 5.79979 2.34955 2.20406
v -5.79979 2.34955 2.20406
v 4.62291 3.47469 3.64632
v -4.62291 3.47469 3.64632
v 7.15929 -0.81182 -0.072044
v -7.15929 -0.81182 -0.072044
v 1.59229 -1.25771 5.45695
v -1.59229 -1.25771 5.45695
v 1.39704 -1.34014 5.63038
v -1.39704 -1.34014 5.63038
v 1.72618 -0.919165 5.27336
v -1.72618 -0.919165 5.27336
v 2.76029 5.10097 5.01599
v -2.76029 5.10097 5.01599
v 0.563221 2.30769 5.56679
v -0.563221 2.30769 5.56679
v 0 2.47325 5.78863
v 6.23488 -1.94443 1.66354
v -6.23488 -1.94443 1.66354
v 2.64455 4.52465 4.92156
v -2.64455 4.52465 4.92156
v 7.54224 -1.04928 -2.43132
v 7.66418 0.673132 -2.43587
v -7.54224 -1.04928 -2.43132
v -7.66418 0.673132 -2.43587
v 0 1.72837 6.31675
v 6.58323 -3.94127 0.070268
v -6.58323 -3.94127 0.070268
v 0 1.05941 6.7746
v 4.19583 2.2352 3.3751
v -4.19583 2.2352 3.3751
v 4.01839 2.4837 3.4409
v -4.01839 2.4837 3.4409
v 0 8.26178 4.48153
v 2.63259 3.71383 4.36463
v -2.63259 3.71383 4.36463
v 0 -1.724 6.60139
v 0.179909 -1.68986 6.5733
v -0.179909 -1.68986 6.5733
v 4.46582 2.42295 3.15517
v -4.46582 2.42295 3.15517
v 0.767097 -0.968035 7.07793
v -0.767097 -0.968035 7.07793
v 0.946709 1.90763 5.19678
v -0.946709 1.90763 5.19678
v 0 -2.52194 5.93226
v 0 -2.08902 6.05827
v 1.63963 2.5563 3.86374
v -1.63963 2.5563 3.86374
v 0.748618 -1.06799 6.7983
v -0.748618 -1.06799 6.7983
v 6.95415 -2.43984 -0.131163
v -6.95415 -2.43984 -0.131163
v 7.2709 -2.89092 -2.25245
v -7.2709 -2.89092 -2.25245
v 6.09413 -3.20599 1.47348
v -6.09413 -3.20599 1.47348
v 1.19382 -1.3068 5.73775
v -1.19382 -1.3068 5.73775
v 1.04362 -1.46497 5.66246
v -1.04362 -1.46497 5.66246
f 1 2 3
f 4 5 6
f 7 8 9
f 10 11 12
f 13 14 15
f 16 17 18
f 19 15 14
f 20 18 17
f 24 25 26
f 27 28 29
f 30 26 25
f 31 29 28
f 34 35 26
f 36 28 37
f 38 26 35
f 39 37 28
f 26 30 34
f 28 36 31
f 40 34 30
f 41 31 36
f 42 43 44
f 45 46 47
f 48 44 43
f 49 47 46
f 50 51 7
f 52 2 53
f 8 7 51
f 1 53 2
f 54 55 56
f 57 58 59
f 60 56 55
f 61 59 58
f 62 63 64
f 62 64 65
f 66 64 63
f 67 65 64
f 68 69 70
f 71 72 73
f 74 70 69
f 75 73 72
f 55 78 60
f 59 61 79
f 80 60 78
f 81 79 61
f 82 83 84
f 85 86 87
f 88 84 83
f 89 87 86
f 90 91 51
f 92 53 93
f 8 51 91
f 1 93 53
f 96 97 98
f 99 100 101
f 102 98 97
f 103 101 100
f 104 105 106
f 107 108 109
f 110 106 105
f 111 109 108
f 112 113 114
f 112 114 115
f 116 114 113
f 117 115 114
f 118 119 120
f 121 122 123
f 124 120 119
f 125 123 122
f 54 126 127
f 57 128 129
f 130 127 126
f 131 129 128
f 126 132 133
f 129 134 135
f 97 133 132
f 101 135 134
f 96 32 76
f 99 77 33
f 136 137 138
f 139 140 141
f 142 138 137
f 143 141 140
f 144 145 146
f 147 148 149
f 150 146 145
f 151 149 148
f 84 88 152
f 86 153 89
f 11 152 88
f 4 89 153
f 154 155 156
f 157 158 159
f 160 156 155
f 161 159 158
f 43 104 48
f 47 49 107
f 106 48 104
f 108 107 49
f 162 163 136
f 164 139 163
f 165 136 163
f 165 163 139
f 166 167 168
f 169 170 171
f 172 168 167
f 173 171 170
f 162 136 174
f 164 175 139
f 138 174 136
f 140 139 175
f 98 176 177
f 100 178 179
f 180 177 176
f 181 179 178
f 38 182 183
f 39 184 185
f 186 183 182
f 187 185 184
f 188 189 190
f 191 192 193
f 194 190 189
f 195 193 192
f 50 7 196
f 52 197 2
f 198 196 7
f 199 2 197
f 70 74 200
f 72 201 75
f 202 200 74
f 203 75 201
f 182 38 204
f 185 205 39
f 35 204 38
f 37 39 205
f 206 207 208
f 209 210 211
f 212 208 207
f 213 211 210
f 116 113 214
f 117 215 115
f 216 214 113
f 217 115 215
f 66 42 218
f 67 219 45
f 44 218 42
f 46 45 219
f 60 80 24
f 61 27 81
f 25 24 80
f 29 81 27
f 152 220 221
f 153 222 223
f 224 221 220
f 225 223 222
f 208 212 226
f 210 227 213
f 228 226 212
f 229 213 227
f 230 231 232
f 233 234 235
f 236 232 231
f 237 235 234
f 238 239 240
f 241 242 243
f 244 240 239
f 245 243 242
f 212 238 228
f 213 229 241
f 240 228 238
f 242 241 229
f 246 15 247
f 248 249 17
f 250 247 15
f 251 17 249
f 252 247 168
f 253 170 249
f 166 168 247
f 169 249 170
f 254 255 256
f 254 257 255
f 258 256 255
f 259 255 257
f 154 116 155
f 157 159 117
f 214 155 116
f 215 117 159
f 126 133 130
f 129 131 134
f 260 130 133
f 261 134 131
f 262 50 263
f 264 265 52
f 196 263 50
f 197 52 265
f 96 266 32
f 99 33 267
f 21 32 266
f 23 267 33
f 56 183 132
f 58 135 184
f 186 132 183
f 187 184 135
f 268 230 180
f 269 181 233
f 232 180 230
f 234 233 181
f 145 90 150
f 149 151 92
f 51 150 90
f 53 92 151
f 221 224 239
f 222 243 225
f 270 239 224
f 271 225 243
f 144 146 82
f 147 85 148
f 83 82 146
f 87 148 85
f 272 221 238
f 273 241 222
f 239 238 221
f 243 222 241
f 274 246 252
f 275 253 248
f 247 252 246
f 249 248 253
f 186 102 132
f 187 135 103
f 97 132 102
f 101 103 135
f 98 276 176
f 100 179 277
f 278 176 276
f 279 277 179
f 276 280 69
f 277 73 281
f 74 69 280
f 75 281 73
f 282 226 42
f 283 45 227
f 43 42 226
f 47 227 45
f 136 165 284
f 139 285 165
f 286 284 165
f 286 165 285
f 54 127 252
f 57 253 128
f 287 252 127
f 288 128 253
f 162 289 63
f 164 65 290
f 282 63 289
f 283 290 65
f 56 60 183
f 58 184 61
f 24 183 60
f 27 61 184
f 226 228 43
f 227 47 229
f 104 43 228
f 107 229 47
f 291 292 274
f 293 275 294
f 246 274 292
f 248 294 275
f 202 74 102
f 203 103 75
f 280 102 74
f 281 75 103
f 163 162 62
f 163 62 164
f 63 62 162
f 65 164 62
f 183 24 38
f 184 39 27
f 26 38 24
f 28 27 39
f 263 120 262
f 265 264 122
f 124 262 120
f 125 122 264
f 284 286 156
f 285 158 286
f 295 156 286
f 295 286 158
f 190 194 68
f 192 71 195
f 69 68 194
f 73 195 71
f 114 116 298
f 114 298 117
f 154 298 116
f 157 117 298
f 207 272 212
f 211 213 273
f 238 212 272
f 241 273 213
f 118 299 119
f 121 123 300
f 301 119 299
f 302 300 123
f 289 208 282
f 290 283 210
f 226 282 208
f 227 210 283
f 168 172 55
f 170 59 173
f 78 55 172
f 79 173 59
f 292 13 246
f 294 248 16
f 15 246 13
f 17 16 248
f 63 282 66
f 65 67 283
f 42 66 282
f 45 283 67
f 64 66 303
f 64 303 67
f 218 303 66
f 219 67 303
f 69 194 276
f 73 277 195
f 278 276 194
f 279 195 277
f 102 186 202
f 103 203 187
f 182 202 186
f 185 187 203
f 247 250 166
f 249 169 251
f 270 166 250
f 271 251 169
f 88 301 11
f 89 4 302
f 12 11 301
f 6 302 4
f 252 168 54
f 253 57 170
f 55 54 168
f 59 170 57
f 289 304 208
f 290 210 305
f 206 208 304
f 209 305 210
f 255 306 258
f 255 259 306
f 307 258 306
f 308 306 259
f 289 162 304
f 290 305 164
f 174 304 162
f 175 164 305
f 156 295 154
f 158 157 295
f 298 154 295
f 298 295 157
f 220 10 309
f 223 310 5
f 12 309 10
f 6 5 310
f 113 256 216
f 115 217 257
f 311 216 256
f 312 257 217
f 240 244 105
f 242 109 245
f 19 105 244
f 20 245 109
f 136 284 137
f 139 141 285
f 313 137 284
f 314 285 141
f 11 10 152
f 4 153 5
f 220 152 10
f 223 5 153
f 14 110 19
f 18 20 111
f 105 19 110
f 109 111 20
f 124 146 262
f 125 264 148
f 150 262 146
f 151 148 264
f 284 156 313
f 285 314 158
f 160 313 156
f 161 158 314
f 133 76 260
f 134 261 77
f 83 119 88
f 87 89 123
f 301 88 119
f 302 123 89
f 266 177 315
f 267 315 178
f 316 315 177
f 316 178 315
f 258 307 236
f 259 237 308
f 232 236 307
f 234 308 237
f 22 21 315
f 22 315 23
f 266 315 21
f 267 23 315
f 146 124 83
f 148 87 125
f 119 83 124
f 123 125 87
f 228 240 104
f 229 107 242
f 105 104 240
f 109 242 107
f 166 270 167
f 169 171 271
f 224 167 270
f 225 271 171
f 262 150 50
f 264 52 151
f 51 50 150
f 53 151 52
f 54 56 126
f 57 129 58
f 132 126 56
f 135 58 129
f 97 96 133
f 101 134 99
f 76 133 96
f 77 99 134
f 202 182 200
f 203 201 185
f 204 200 182
f 205 185 201
f 96 98 266
f 99 267 100
f 177 266 98
f 178 100 267
f 311 190 216
f 312 217 192
f 68 216 190
f 71 192 217
f 7 9 198
f 2 199 3
f 317 198 9
f 318 3 199
f 311 236 319
f 312 320 237
f 231 319 236
f 235 237 320
f 91 317 8
f 93 1 318
f 9 8 317
f 3 318 1
f 311 256 236
f 312 237 257
f 258 236 256
f 259 257 237
f 274 321 291
f 275 293 322
f 323 291 321
f 324 322 293
f 127 130 94
f 128 95 131
f 15 19 250
f 17 251 20
f 244 250 19
f 245 20 251
f 311 319 190
f 312 192 320
f 188 190 319
f 191 320 192
f 252 287 274
f 253 275 288
f 321 274 287
f 322 288 275
f 112 254 113
f 112 115 254
f 256 113 254
f 257 254 115
f 98 102 276
f 100 277 103
f 280 276 102
f 281 103 277
f 278 194 327
f 279 328 195
f 189 327 194
f 193 195 328
f 180 232 177
f 181 178 234
f 307 177 232
f 308 234 178
f 177 307 316
f 178 316 308
f 306 316 307
f 306 308 316
f 176 278 329
f 179 330 279
f 327 329 278
f 328 279 330
f 172 299 78
f 173 79 300
f 118 78 299
f 121 300 79
f 167 224 309
f 171 310 225
f 220 309 224
f 223 225 310
f 78 118 80
f 79 81 121
f 120 80 118
f 122 121 81
f 80 120 25
f 81 29 122
f 263 25 120
f 265 122 29
f 25 263 30
f 29 31 265
f 196 30 263
f 197 265 31
f 196 198 30
f 197 31 199
f 40 30 198
f 41 199 31
f 138 142 91
f 140 93 143
f 317 91 142
f 318 143 93
f 174 138 90
f 175 92 140
f 91 90 138
f 93 140 92
f 174 90 304
f 175 305 92
f 145 304 90
f 149 92 305
f 304 145 206
f 305 209 149
f 144 206 145
f 147 149 209
f 207 206 82
f 211 85 209
f 144 82 206
f 147 209 85
f 82 84 207
f 85 211 86
f 272 207 84
f 273 86 211
f 84 152 272
f 86 273 153
f 221 272 152
f 222 153 273
f 230 188 231
f 233 235 191
f 319 231 188
f 320 191 235
f 268 329 189
f 269 193 330
f 327 189 329
f 328 330 193
f 176 329 180
f 179 181 330
f 268 180 329
f 269 330 181
f 287 325 321
f 288 322 326
f 296 321 325
f 297 326 322
f 230 268 188
f 233 191 269
f 189 188 268
f 193 269 191
f 127 94 287
f 128 288 95
f 325 287 94
f 326 95 288
f 198 317 40
f 199 41 318
f 142 40 317
f 143 318 41
f 40 142 34
f 41 36 143
f 137 34 142
f 141 143 36
f 313 35 137
f 314 141 37
f 34 137 35
f 36 37 141
f 204 35 160
f 205 161 37
f 313 160 35
f 314 37 161
f 214 216 70
f 215 72 217
f 68 70 216
f 71 217 72
f 155 200 160
f 159 161 201
f 204 160 200
f 205 201 161
f 155 214 200
f 159 201 215
f 70 200 214
f 72 215 201
f 239 270 244
f 243 245 271
f 250 244 270
f 251 271 245
f 309 12 299
f 310 300 6
f 301 299 12
f 302 6 300
f 167 309 172
f 171 173 310
f 299 172 309
f 300 310 173
