# Created by Open3D 
# object name: beautiful_lower_jaw
# number of vertices: 159
# number of triangles: 280
v 2.15308 -4.27632 4.03809
v 1.84511 -4.09888 4.24726
v 1.82661 -4.39953 4.39902
v -2.15308 -4.27632 4.03809
v -1.82661 -4.39953 4.39902
v -1.84511 -4.09888 4.24726
v 0.711452 -3.32936 5.87704
v 0 -3.4064 5.97951
v 0.672728 -3.68802 5.7378
v -0.711452 -3.32936 5.87704
v -0.672728 -3.68802 5.7378
v 0 -3.70681 5.86492
v 1.43161 -3.50095 5.49619
v -1.43161 -3.50095 5.49619
v 1.26256 -3.78769 5.41778
v -1.26256 -3.78769 5.41778
v 0 -8.76524 4.89144
v 0 -9.40338 4.26449
v 1.3137 -8.63999 4.70246
v -1.3137 -8.63999 4.70246
v 1.29292 -9.29592 4.09406
v -1.29292 -9.29592 4.09406
v 1.91491 -3.80315 5.02893
v -1.91491 -3.80315 5.02893
v 1.73255 -3.95277 5.00058
v -1.73255 -3.95277 5.00058
v 2.26666 -7.42577 4.38981
v 3.08404 -6.80984 3.81419
v 1.93862 -6.61441 4.52108
v -2.26666 -7.42577 4.38981
v -1.93862 -6.61441 4.52108
v -3.08404 -6.80984 3.81419
v 2.68025 -6.11157 4.09615
v -2.68025 -6.11157 4.09615
v 2.1178 -4.13709 4.5551
v -2.1178 -4.13709 4.5551
v 2.28534 -4.0512 4.58244
v -2.28534 -4.0512 4.58244
v 1.56355 -4.08276 4.84226
v 1.46913 -4.03635 4.60491
v 1.95375 -4.18389 4.43171
v -1.56355 -4.08276 4.84226
v -1.95375 -4.18389 4.43171
v -1.46913 -4.03635 4.60491
v 2.36825 -3.10624 4.8681
v 2.85016 -3.66572 4.48499
v -2.36825 -3.10624 4.8681
v -2.85016 -3.66572 4.48499
v 4.58899 -4.72873 2.98322
v 3.74732 -4.50354 3.72645
v 3.87838 -6.04176 3.31108
v -4.58899 -4.72873 2.98322
v -3.87838 -6.04176 3.31108
v -3.74732 -4.50354 3.72645
v 3.28881 -5.38251 3.79575
v -3.28881 -5.38251 3.79575
v 0.76972 -6.09539 4.98588
v 0.699606 -5.29185 5.4483
v 0 -6.14962 5.07137
v -0.76972 -6.09539 4.98588
v -0.699606 -5.29185 5.4483
v 0 -5.36512 5.53544
v 2.05685 -4.47767 4.52088
v 2.19612 -4.59832 4.47979
v 2.32123 -4.32907 4.25816
v -2.05685 -4.47767 4.52088
v -2.32123 -4.32907 4.25816
v -2.19612 -4.59832 4.47979
v 2.45621 -4.34262 4.28388
v -2.45621 -4.34262 4.28388
v 1.54639 -5.81939 4.75789
v -1.54639 -5.81939 4.75789
v 2.16968 -5.44043 4.45587
v -2.16968 -5.44043 4.45587
v 5.84305 -5.24802 0.924091
v 5.43619 -4.03048 2.10985
v 5.00059 -6.13513 1.89252
v -5.84305 -5.24802 0.924091
v -5.00059 -6.13513 1.89252
v -5.43619 -4.03048 2.10985
v 1.72905 -4.61868 4.85446
v 1.83862 -4.82875 4.82374
v -1.72905 -4.61868 4.85446
v -1.83862 -4.82875 4.82374
v 4.3869 -2.68329 3.64389
v -4.3869 -2.68329 3.64389
v 0.997827 -6.93092 4.97958
v 0 -6.9915 5.15348
v -0.997827 -6.93092 4.97958
v 1.32509 -5.10651 5.20501
v -1.32509 -5.10651 5.20501
v 1.25582 -4.7879 5.23705
v -1.25582 -4.7879 5.23705
v 0 -5.01957 5.60145
v 0.669687 -4.94977 5.50961
v -0.669687 -4.94977 5.50961
v 2.41294 -8.25885 4.11921
v 2.30898 -8.9742 3.60907
v -2.41294 -8.25885 4.11921
v -2.30898 -8.9742 3.60907
v 5.08528 -7.17859 0.714711
v 4.06893 -7.99311 1.92512
v -5.08528 -7.17859 0.714711
v -4.06893 -7.99311 1.92512
v 4.13527 -6.99664 2.67197
v -4.13527 -6.99664 2.67197
v 3.31181 -7.66082 3.38296
v -3.31181 -7.66082 3.38296
v 2.65011 -5.00365 4.18848
v -2.65011 -5.00365 4.18848
v 1.92956 -4.41183 4.49705
v 2.20482 -4.30451 4.1625
v -1.92956 -4.41183 4.49705
v -2.20482 -4.30451 4.1625
v 3.49258 -3.19582 4.1302
v -3.49258 -3.19582 4.1302
v 0 -7.94219 5.18117
v 1.2173 -7.83447 4.96929
v -1.2173 -7.83447 4.96929
v 3.10264 -4.35298 4.0959
v -3.10264 -4.35298 4.0959
v 0.606033 -3.92456 5.44492
v -0.606033 -3.92456 5.44492
v 1.13104 -3.97394 5.18965
v -1.13104 -3.97394 5.18965
v 3.21065 -8.53328 2.802
v -3.21065 -8.53328 2.802
v 1.6156 -4.47594 4.81363
v -1.6156 -4.47594 4.81363
v 1.18112 -4.58 5.18956
v -1.18112 -4.58 5.18956
v 0 -4.74558 5.52946
v 0.630947 -4.6951 5.44937
v -0.630947 -4.6951 5.44937
v 0 -4.5424 5.40475
v 0.583218 -4.51798 5.33987
v -0.583218 -4.51798 5.33987
v 1.09882 -4.45879 5.12073
v 1.53717 -4.42321 4.74547
v -1.09882 -4.45879 5.12073
v -1.53717 -4.42321 4.74547
v 5.94052 -6.22363 -0.631468
v -5.94052 -6.22363 -0.631468
v 6.71968 -4.78864 -1.7454
v 6.58323 -3.94127 0.070268
v -6.71968 -4.78864 -1.7454
v -6.58323 -3.94127 0.070268
v 1.02434 -3.98985 4.92669
v -1.02434 -3.98985 4.92669
v 0.533422 -3.99322 5.1382
v -0.533422 -3.99322 5.1382
v 0 -3.9183 5.56943
v 0 -3.99444 5.21948
v 6.95415 -2.43984 -0.131163
v -6.95415 -2.43984 -0.131163
v 7.2709 -2.89092 -2.25245
v -7.2709 -2.89092 -2.25245
v 6.09413 -3.20599 1.47348
v -6.09413 -3.20599 1.47348
f 1 2 3
f 4 5 6
f 7 8 9
f 10 11 8
f 12 9 8
f 12 8 11
f 7 9 13
f 10 14 11
f 15 13 9
f 16 11 14
f 17 18 19
f 17 20 18
f 21 19 18
f 22 18 20
f 13 15 23
f 14 24 16
f 25 23 15
f 26 16 24
f 27 28 29
f 30 31 32
f 33 29 28
f 34 32 31
f 25 35 23
f 26 24 36
f 37 23 35
f 38 36 24
f 39 40 41
f 42 43 44
f 2 41 40
f 6 44 43
f 45 23 46
f 47 48 24
f 37 46 23
f 38 24 48
f 49 50 51
f 52 53 54
f 55 51 50
f 56 54 53
f 57 58 59
f 60 59 61
f 62 59 58
f 62 61 59
f 63 64 65
f 66 67 68
f 69 65 64
f 70 68 67
f 29 33 71
f 31 72 34
f 73 71 33
f 74 34 72
f 75 76 77
f 78 79 80
f 49 77 76
f 52 80 79
f 81 82 63
f 83 66 84
f 64 63 82
f 68 84 66
f 87 57 88
f 89 88 60
f 59 88 57
f 59 60 88
f 73 82 71
f 74 72 84
f 90 71 82
f 91 84 72
f 90 82 92
f 91 93 84
f 81 92 82
f 83 84 93
f 62 58 94
f 62 94 61
f 95 94 58
f 96 61 94
f 97 19 98
f 99 100 20
f 21 98 19
f 22 20 100
f 23 45 13
f 24 14 47
f 101 77 102
f 103 104 79
f 105 102 77
f 106 79 104
f 28 27 107
f 32 108 30
f 97 107 27
f 99 30 108
f 73 109 82
f 74 84 110
f 64 82 109
f 68 110 84
f 111 112 3
f 113 5 114
f 1 3 112
f 4 114 5
f 117 118 88
f 117 88 119
f 87 88 118
f 89 119 88
f 55 50 109
f 56 110 54
f 120 109 50
f 121 54 110
f 51 55 28
f 53 32 56
f 33 28 55
f 34 56 32
f 33 55 73
f 34 74 56
f 109 73 55
f 110 56 74
f 65 112 63
f 67 66 114
f 111 63 112
f 113 114 66
f 9 122 15
f 11 16 123
f 124 15 122
f 125 123 16
f 15 124 25
f 16 26 125
f 39 25 124
f 42 125 26
f 85 115 49
f 86 52 116
f 50 49 115
f 54 116 52
f 25 39 35
f 26 36 42
f 41 35 39
f 43 42 36
f 105 51 107
f 106 108 53
f 28 107 51
f 32 53 108
f 107 97 126
f 108 127 99
f 98 126 97
f 100 99 127
f 128 81 111
f 129 113 83
f 63 111 81
f 66 83 113
f 92 81 130
f 93 131 83
f 128 130 81
f 129 83 131
f 94 95 132
f 94 132 96
f 133 132 95
f 134 96 132
f 132 133 135
f 132 135 134
f 136 135 133
f 137 134 135
f 138 130 139
f 140 141 131
f 128 139 130
f 129 131 141
f 3 139 111
f 5 113 141
f 128 111 139
f 129 141 113
f 142 75 101
f 143 103 78
f 77 101 75
f 79 78 103
f 144 145 142
f 146 143 147
f 75 142 145
f 78 147 143
f 124 148 39
f 125 42 149
f 40 39 148
f 44 149 42
f 109 120 64
f 110 68 121
f 69 64 120
f 70 121 68
f 19 118 17
f 20 17 119
f 117 17 118
f 117 119 17
f 122 150 124
f 123 125 151
f 148 124 150
f 149 151 125
f 41 2 112
f 43 114 6
f 1 112 2
f 4 6 114
f 102 105 126
f 104 127 106
f 107 126 105
f 108 106 127
f 46 115 45
f 48 47 116
f 12 152 9
f 12 11 152
f 122 9 152
f 123 152 11
f 152 153 122
f 152 123 153
f 150 122 153
f 151 153 123
f 49 51 77
f 52 79 53
f 105 77 51
f 106 53 79
f 27 118 97
f 30 99 119
f 19 97 118
f 20 119 99
f 133 130 136
f 134 137 131
f 138 136 130
f 140 131 137
f 95 92 133
f 96 134 93
f 130 133 92
f 131 93 134
f 58 90 95
f 61 96 91
f 92 95 90
f 93 91 96
f 57 71 58
f 60 61 72
f 90 58 71
f 91 72 61
f 29 71 87
f 31 89 72
f 57 87 71
f 60 72 89
f 35 41 65
f 36 67 43
f 112 65 41
f 114 43 67
f 35 65 37
f 36 38 67
f 69 37 65
f 70 67 38
f 46 37 120
f 48 121 38
f 69 120 37
f 70 38 121
f 115 46 50
f 116 54 48
f 120 50 46
f 121 48 54
f 49 76 85
f 52 86 80
f 118 27 87
f 119 89 30
f 29 87 27
f 31 30 89
f 75 145 76
f 78 80 147
f 158 76 145
f 159 147 80
f 156 154 144
f 157 146 155
f 145 144 154
f 147 155 146
f 135 136 153
f 135 153 137
f 150 153 136
f 151 137 153
f 136 138 150
f 137 151 140
f 148 150 138
f 149 140 151
f 138 139 148
f 140 149 141
f 40 148 139
f 44 141 149
f 139 3 40
f 141 44 5
f 2 40 3
f 6 5 44
